<?xml version="1.0" encoding="utf-8"?>
<!-- Generator: Adobe Illustrator 18.0.0, SVG Export Plug-In . SVG Version: 6.00 Build 0)  -->
<!DOCTYPE svg PUBLIC "-//W3C//DTD SVG 1.1//EN" "http://www.w3.org/Graphics/SVG/1.1/DTD/svg11.dtd">
<svg version="1.1" id="Слой_1" xmlns:ev="http://www.w3.org/2001/xml-events"
	 xmlns="http://www.w3.org/2000/svg" xmlns:xlink="http://www.w3.org/1999/xlink" x="0px" y="0px" viewBox="28 3 113.6 95"
	 enable-background="new 28 3 113.6 95" xml:space="preserve">
<path fill="#AB9359" d="M141.3,64.9c0.1,0.2,0.2,0.4,0.3,0.6c-6.9,0-13.8,0-20.6,0c0-1.1,0-2.2,0-3.3c2.1,0,4.1,0,6.2,0
	c0-5.6,0-11,0-16.6c4.8,0,9.5,0,14.4,0c-0.1,0.2-0.2,0.4-0.3,0.5c-1.7,2.9-3.4,5.9-5.2,8.8c-0.3,0.5-0.3,0.8,0,1.3
	C137.9,59.1,139.6,62,141.3,64.9z M128.8,39.4c-1.9-7.7-5.6-14.4-11-20.2c-6.6-7-14.6-11.5-24-13.5c-9.8-2-19.4-1-28.5,3.4
	c-13.1,6.4-21.4,16.8-25,31c-0.3,1.1-0.4,2.1-0.6,3.2c-0.1,0.3-0.1,0.5-0.5,0.5c-0.4,0-0.9,0-1.5,0c0.1-0.8,0.2-1.6,0.4-2.3
	c1.8-9.1,5.8-17,12.2-23.7C57.3,10.6,65.5,6,75.3,4c2.1-0.4,4.2-0.6,6.2-0.9c0.2,0,0.3-0.1,0.5-0.1c1.9,0,3.8,0,5.6,0
	c0.9,0.1,1.8,0.2,2.7,0.3c8.2,1,15.7,3.9,22.3,8.8c9,6.6,14.9,15.3,17.8,26.1c0.5,1.7,0.7,3.4,1.1,5.1c0,0.2,0,0.3,0,0.5
	c-0.6,0-1.2,0-1.8,0C129.5,42.3,129.2,40.8,128.8,39.4z M42.2,45.6c0,5.5,0,11,0,16.6c2.2,0,4.3,0,6.4,0c0,1.1,0,2.2,0,3.4
	c-0.3,0-0.5,0-0.7,0c-6.4,0-12.9,0-19.3,0c-0.2,0-0.4,0-0.6,0c0-0.1,0-0.2,0-0.2c0.1-0.1,0.2-0.2,0.2-0.3c1.8-3,3.6-6.1,5.4-9.1
	c0.2-0.3,0.1-0.5-0.1-0.8c-1.7-3-3.5-5.9-5.2-8.9c-0.1-0.2-0.2-0.3-0.3-0.4c0-0.1,0-0.2,0-0.2c4.5,0,9,0,13.5,0
	C41.7,45.6,41.9,45.6,42.2,45.6z M115.4,83.4c-7.7,7.2-16.8,11.3-27.3,12C65.4,97,48.8,82.1,43.2,67.3c2.4,0,4.8,0,7.3,0
	c0-1.7,0-3.4,0-5.1c0.6,0,1.1,0,1.6,0c0.2,0,0.3,0.3,0.4,0.4c1.5,3.9,3.6,7.4,6.3,10.6c5.5,6.2,12.3,10.2,20.5,11.4
	c11.2,1.7,20.9-1.4,29.2-9c3.9-3.6,6.7-7.9,8.6-12.9c0.1-0.4,0.3-0.6,0.8-0.5c0.4,0,0.9,0,1.4,0c0,1.7,0,3.4,0,5.1
	c2.4,0,4.8,0,7.2,0C123.9,73.5,120.2,78.9,115.4,83.4z M59.9,79.4c-1.3,0.3-2.4,1.7-2.5,3c-0.1,1.3,1,2.7,2.7,3.3
	c0.2-0.3,0.3-0.6,0.5-0.9c-0.9-0.4-1.8-1-1.8-2.1c0-0.9,0.5-1.6,1.4-2c1.2-0.5,2,0.3,2.7,1.2c0.3-0.2,0.5-0.4,0.8-0.6
	C62.8,79.8,61.2,79,59.9,79.4z M64.8,81.7c-1,1.8-2,3.5-3,5.2c1.1,0.6,2.2,1.3,3.3,1.9c0.2-0.3,0.3-0.6,0.5-0.9
	c-0.7-0.4-1.4-0.8-2.1-1.2c0.2-0.4,0.5-0.8,0.7-1.3c0.7,0.4,1.3,0.7,1.9,1.1c0.2-0.3,0.3-0.6,0.5-0.9c-0.7-0.4-1.3-0.7-1.9-1.1
	c0.2-0.4,0.4-0.7,0.6-1.1c0.7,0.4,1.3,0.8,2,1.1c0.2-0.3,0.4-0.6,0.5-0.9C67,82.9,65.9,82.3,64.8,81.7z M71.9,85.2
	c-0.7-0.4-1.5-0.6-2.2-0.9c-0.3-0.1-0.4,0-0.5,0.3c-0.1,0.4-0.3,0.8-0.5,1.3c-0.5,1.3-1,2.6-1.5,3.9c0.4,0.2,0.8,0.3,1.2,0.5
	c0.3-0.8,0.6-1.4,0.9-2.1c1,0.3,1.1,0.5,1,1.6c-0.2,1.5-0.3,1.1,1,1.6c0,0,0.1,0,0.1,0c0-1,0.5-2-0.1-3c1-0.2,1.4-0.6,1.6-1.3
	C73,86.3,72.7,85.7,71.9,85.2z M74.3,86.1c-0.1,0.4-0.2,0.7-0.3,1.1c0.6,0.1,1.1,0.3,1.6,0.4c-0.4,1.6-0.7,3.2-1.1,4.7
	c0.5,0.1,0.9,0.2,1.3,0.3c0.4-1.6,0.7-3.2,1.1-4.7c0.6,0.1,1.1,0.2,1.6,0.3c0.1-0.4,0.2-0.7,0.2-1.1C77.2,86.7,75.8,86.4,74.3,86.1z
	 M80,87.2c-0.2,2-0.4,3.9-0.7,5.9c0.5,0,0.9,0.1,1.3,0.1c0.2-2,0.4-4,0.7-5.9C80.8,87.3,80.4,87.3,80,87.2z M86.6,87.5
	c-1.2,0-2.4,0-3.5,0c0,2,0,4,0,5.9c0.5,0,0.9,0,1.3,0c0-0.8,0-1.6,0-2.4c0.7,0,1.4,0,2.1,0c0-0.4,0-0.7,0-1.1c-0.7,0-1.4,0-2.1,0
	c0-0.5,0-0.9,0-1.4c0.8,0,1.5,0,2.2,0C86.6,88.2,86.6,87.8,86.6,87.5z M89.5,87.2c-0.5,0-0.9,0.1-1.3,0.1c0.2,2,0.4,3.9,0.7,5.9
	c0.5-0.1,0.8-0.1,1.3-0.1C89.9,91.2,89.7,89.2,89.5,87.2z M96.3,90.8c-1,0.4-1.9,0.8-2.8,0c-0.7-0.6-0.9-1.4-0.6-2.3
	c0.4-1.3,1.5-1.3,2.5-1.3c0-0.4,0-0.7,0-1c-1.7-0.2-3.2,0.6-3.8,1.9c-0.5,1.2-0.1,2.9,0.9,3.7c1,0.9,2.8,0.8,4.1-0.1
	C96.6,91.4,96.5,91.1,96.3,90.8z M98.3,84.9c-0.1,0.1-0.3,0.3-0.3,0.5c0.2,1.9,0.4,3.8,0.6,5.8c1.2-0.3,1.3-0.3,1.1-1.4
	c-0.1-0.5,0.1-0.7,0.5-0.9c1-0.4,1-0.4,1.7,0.4c0.1,0.1,0.4,0.3,0.5,0.3c0.4-0.1,0.7-0.3,1.1-0.4c-1.1-1.3-2.1-2.5-3.1-3.8
	C99.6,84.3,99.6,84.3,98.3,84.9z M105.4,81.3c-1.3,0.8-2.6,1.5-3.9,2.3c0.2,0.3,0.4,0.6,0.5,0.9c0.5-0.3,0.9-0.5,1.4-0.8
	c0.8,1.4,1.6,2.8,2.5,4.2c0.4-0.2,0.8-0.4,1.1-0.7c-0.8-1.4-1.6-2.8-2.4-4.2c0.5-0.3,0.9-0.6,1.4-0.8
	C105.7,81.9,105.6,81.6,105.4,81.3z M112.3,82.1c-0.7,0.5-1.3,1-1.9,1.5c-0.3-0.4-0.6-0.7-0.9-1.1c0.6-0.5,1.1-0.9,1.7-1.4
	c-0.2-0.3-0.5-0.6-0.7-0.8c-0.6,0.5-1.2,0.9-1.7,1.4c-0.3-0.4-0.5-0.7-0.8-1c0.6-0.5,1.2-1,1.8-1.5c-0.2-0.3-0.4-0.6-0.7-0.8
	c-1,0.8-1.9,1.5-2.9,2.3c1.3,1.6,2.5,3.1,3.7,4.7c1-0.8,2-1.6,3-2.4C112.8,82.6,112.6,82.3,112.3,82.1z M99.2,85.8
	C99.2,85.8,99.3,85.8,99.2,85.8c0.6,0.6,1,1.1,1.6,1.8c-0.4,0.2-0.8,0.3-1.2,0.5C99.4,87.3,99.3,86.6,99.2,85.8z M70.8,87.5
	c-0.4,0-0.7-0.1-1.2-0.2c0.2-0.4,0.3-0.7,0.4-1c0.1-0.2,0-0.7,0.5-0.6c0.6,0.1,1,0.5,1,1C71.5,87.1,71.3,87.5,70.8,87.5z M65,65.1
	c0,2.2,0,4.4,0,6.6c-0.4,0-0.7,0-1.2,0c0-2.2,0-4.4,0-6.6C64.3,65.1,64.6,65.1,65,65.1z M69.3,68.1c1,0.5,1.3,1.2,1.2,2.1
	c-0.1,0.8-0.7,1.5-1.7,1.6c-0.7,0.1-1.3,0-2-0.1c-0.5,0-0.7-0.3-0.5-0.8c0.1-0.1,0.1-0.2,0.1-0.3c0.7,0.1,1.3,0.2,1.9,0.2
	c0.4,0,0.8-0.2,0.9-0.7c0.1-0.5-0.1-0.8-0.5-1c-0.4-0.2-0.8-0.3-1.2-0.5c-0.9-0.5-1.3-1.1-1.1-2c0.1-0.8,0.8-1.4,1.7-1.5
	c0.8-0.1,1.5,0,2.2,0.3c-0.1,0.3-0.2,0.6-0.3,0.9c-0.6-0.1-1.1-0.2-1.6-0.2c-0.4,0-0.7,0.2-0.9,0.6c-0.1,0.4,0.1,0.7,0.5,0.9
	C68.5,67.7,68.9,67.9,69.3,68.1z M73.6,71.8c-0.8-0.2-1.5-0.6-1.9-1.4c-0.7-1.3-0.7-2.6,0-3.9c0.6-1.2,2-1.7,3.4-1.4
	c1.2,0.3,2.2,1.4,2.3,2.7c0,0.2,0,0.4,0,0.6C77.5,70.8,75.8,72.3,73.6,71.8z M75.7,70.2c0.7-0.9,0.7-2.6,0-3.5c-0.7-1-2.1-1-2.7,0.1
	c-0.3,0.5-0.3,1-0.5,1.7c0.2,0.6,0.3,1.2,0.6,1.7C73.7,71.1,75,71.1,75.7,70.2z M84.6,70.8c0,0.3,0,0.6,0,1c-1.4,0-2.9,0-4.3,0
	c-0.1-0.4,0-0.8,0.3-1.1c0.6-0.5,1.2-1.1,1.7-1.6c0.3-0.3,0.5-0.6,0.7-1c0.3-0.5,0.3-1-0.1-1.4c-0.4-0.5-0.9-0.4-1.4-0.3
	c-0.3,0.1-0.5,0.2-0.9,0.4c-0.1-0.3-0.2-0.5-0.3-0.8c0.8-0.7,2.2-0.9,3.1-0.5c0.9,0.5,1.3,1.7,0.7,2.7c-0.4,0.7-1,1.3-1.5,1.9
	c-0.2,0.2-0.4,0.4-0.7,0.7c0.6,0,1,0,1.4,0C83.8,70.8,84.2,70.8,84.6,70.8z M89.9,70.8c0,0.4,0,0.7,0,1c-1.4,0-2.9,0-4.3,0
	c-0.2-0.5,0-0.8,0.4-1.1c0.6-0.6,1.2-1.2,1.8-1.8c0.2-0.2,0.4-0.5,0.6-0.8c0.2-0.5,0.4-1,0-1.5c-0.4-0.5-0.9-0.4-1.5-0.2
	c-0.3,0.1-0.5,0.2-0.8,0.4c-0.1-0.3-0.2-0.6-0.4-0.8c0.9-0.7,2-0.9,3-0.5c0.9,0.3,1.4,1.5,0.9,2.5c-0.3,0.7-0.9,1.3-1.4,2
	c-0.2,0.3-0.5,0.5-0.9,0.9c0.5,0,0.9,0,1.3,0C89.1,70.8,89.5,70.8,89.9,70.8z M93,71.9c-0.8,0-1.4-0.4-1.8-1.1c-0.7-1.5-0.7-3,0-4.4
	c0.4-0.8,1.1-1.2,2.1-1.2c0.9,0.1,1.5,0.5,1.7,1.3c0.2,0.6,0.3,1.3,0.5,2.1c-0.2,0.7-0.3,1.5-0.6,2.2C94.6,71.6,93.9,71.9,93,71.9z
	 M93.9,66.9c-0.1-0.3-0.5-0.6-0.8-0.6c-0.2,0-0.6,0.3-0.8,0.6c-0.5,1.1-0.5,2.3,0,3.5c0.1,0.3,0.5,0.5,0.8,0.6
	c0.4,0.1,0.7-0.2,0.8-0.6c0.2-0.6,0.2-1.1,0.3-1.7C94.1,68,94.1,67.4,93.9,66.9z M98.4,71.9c-1,0-1.6-0.5-2-1.4
	c-0.5-1.3-0.5-2.6,0-3.9c0.4-1,1.1-1.4,2.2-1.4c0.9,0,1.5,0.6,1.8,1.6c0.2,0.6,0.2,1.1,0.3,1.8c-0.1,0.6-0.2,1.3-0.4,1.9
	C100,71.4,99.3,71.9,98.4,71.9z M99.5,68.5c-0.1-0.6-0.2-1.1-0.3-1.7c-0.1-0.4-0.4-0.7-0.8-0.6c-0.3,0.1-0.6,0.4-0.8,0.6
	c-0.5,1.1-0.4,2.3,0,3.4c0.1,0.3,0.5,0.6,0.8,0.7c0.4,0.1,0.7-0.3,0.8-0.7C99.4,69.7,99.4,69.1,99.5,68.5z M103.7,71.9
	c-0.9,0-1.6-0.4-1.9-1.2c-0.6-1.4-0.6-2.8,0-4.2c0.4-0.9,1.1-1.3,2.1-1.2c0.9,0,1.5,0.6,1.8,1.4c0.2,0.6,0.3,1.3,0.4,2
	c-0.2,0.7-0.3,1.4-0.5,2C105.3,71.4,104.6,71.9,103.7,71.9z M104.8,68.5c-0.1-0.6-0.2-1.2-0.4-1.7c-0.1-0.3-0.5-0.6-0.7-0.6
	c-0.3,0-0.7,0.3-0.8,0.6c-0.5,1.1-0.5,2.3,0,3.4c0.1,0.3,0.5,0.5,0.8,0.6c0.4,0.1,0.7-0.3,0.8-0.6C104.6,69.7,104.7,69.1,104.8,68.5
	z M115.2,62.2c0.4,0.1,0.9,0,1.3,0c-3.5,10.4-15,22.5-32.2,22.3C67.9,84.3,56.5,72.8,53,62.2c0.6,0,1.1,0,1.7,0
	c0.2,0,0.4,0.3,0.4,0.5c1.4,3.3,3.2,6.3,5.6,9c5.3,6,11.9,9.5,19.8,10.6c14.3,1.9,28.2-6,33.8-19.5
	C114.5,62.4,114.7,62.1,115.2,62.2z M44,40.6c27.1,0,54.2,0,81.4,0c0,6.6,0,13.2,0,19.9c-27.1,0-54.3,0-81.4,0
	C44,53.8,44,47.2,44,40.6z M106,55c0,0.2,0,0.4,0,0.5c0.8,0,1.6,0,2.4,0c0-1.3,0-2.5,0-3.7c1.1-0.2,2.2-0.3,3.2-0.6
	c1.6-0.5,2.4-1.9,2.2-3.7c-0.1-1.4-1.2-2.6-2.8-2.8c-1.5-0.2-3,0-4.5-0.1c-0.5,0-0.6,0.2-0.6,0.7C106,48.5,106,51.8,106,55z
	 M94.9,54c1.4,1.6,5.1,2.4,7,1.4c0.1-0.1,0.2-0.2,0.2-0.3c-0.1-0.5-0.2-1.1-0.3-1.6c-1.9,0.4-3.6,0.7-4.9-1c-0.9-1.2-0.9-3.4,0-4.5
	c1.3-1.7,3.1-1.5,5-1c0.2-0.6,0.3-1.2,0.5-1.9c-0.9-0.4-2-0.6-3.4-0.5c-2.2,0.2-4,1.2-4.8,3.4C93.2,50,93.3,52.1,94.9,54z
	 M82.1,51.2c0.3,1.8,1.1,3.2,2.8,3.9c1.7,0.8,3.5,0.8,5.3,0.3c0.1,0,0.3-0.3,0.3-0.5c0-0.5-0.2-1-0.3-1.5c-1.9,0.4-3.7,0.7-5-1.1
	c-0.9-1.2-0.9-3.3,0-4.5c1.3-1.8,3.1-1.5,5-1.1c0.2-0.6,0.3-1.2,0.5-1.9c-0.2-0.1-0.3-0.1-0.4-0.2c-1.8-0.5-3.5-0.5-5.2,0.3
	C82.9,46.1,81.7,48.6,82.1,51.2z M71.5,55.5c0.1,0,0.3-0.2,0.3-0.3c0.2-0.7,0.4-1.4,0.6-2.1c0-0.2,0.2-0.4,0.4-0.4c1,0,1.9,0,2.9,0
	c0.2,0.8,0.5,1.6,0.7,2.4c0,0.1,0.2,0.4,0.3,0.4c0.8,0,1.6,0,2.3,0c0-0.1,0-0.1,0-0.2c-1.1-3.5-2.2-7-3.3-10.5
	c0-0.1-0.3-0.3-0.4-0.3c-0.7,0-1.5,0-2.2,0c-0.5,0-0.7,0.1-0.9,0.6c-0.8,2.6-1.6,5.3-2.4,7.9c-0.2,0.8-0.5,1.6-0.7,2.5
	C70.1,55.5,70.8,55.6,71.5,55.5z M56.6,55.5c0.8,0,1.6,0,2.4,0c0-1.5,0-3,0-4.5c1.4,0,2.7,0,4.1,0c0,1.5,0,3,0,4.5
	c0.9,0,1.6,0,2.4,0c0-3.7,0-7.3,0-10.9c-0.8,0-1.6,0-2.4,0c0,1.4,0,2.8,0,4.2c-1.4,0-2.8,0-4.1,0c0-1.4,0-2.8,0-4.2
	c-0.8,0-1.6,0-2.4,0C56.6,48.3,56.6,51.9,56.6,55.5z M75.3,50.9c-0.8,0-1.6,0-2.4,0c0.4-1.5,0.8-2.9,1.2-4.4
	C74.5,48,74.9,49.4,75.3,50.9z M111.1,47c0.4,0.4,0.5,1.4,0.1,1.9c-0.7,1-1.7,1-2.7,0.9c0-1.1,0-2.2,0-3.3
	C109.4,46.4,110.4,46.2,111.1,47z M106,29.2c1,0,1.7,0.6,2,1.5c0.2,0.6,0.3,1.3,0.4,2.1c-0.2,0.7-0.2,1.4-0.5,2.1
	c-0.3,0.9-1.1,1.4-2.1,1.4c-1,0-1.7-0.5-2.1-1.4c-0.6-1.4-0.6-2.9,0-4.3C104.1,29.6,104.9,29.2,106,29.2z M105,34.6
	c0.1,0.3,0.5,0.6,0.8,0.6c0.3,0,0.7-0.4,0.8-0.7c0.2-0.6,0.3-1.2,0.4-1.9c-0.1-0.6-0.2-1.3-0.4-1.9c-0.1-0.3-0.5-0.6-0.8-0.6
	c-0.3,0-0.7,0.3-0.8,0.6C104.5,32.1,104.5,33.4,105,34.6z M100.8,29.2c0.9,0,1.6,0.5,1.9,1.4c0.2,0.7,0.3,1.4,0.5,2.2
	c-0.2,0.8-0.3,1.6-0.6,2.3c-0.3,0.9-1.1,1.3-2,1.3c-0.9,0-1.6-0.4-2-1.3c-0.7-1.5-0.7-3.1,0-4.6C99,29.6,99.8,29.1,100.8,29.2z
	 M99.8,34.6c0.1,0.3,0.5,0.7,0.8,0.6c0.3,0,0.7-0.4,0.8-0.7c0.2-0.6,0.3-1.2,0.4-1.8c-0.1-0.6-0.2-1.2-0.3-1.8
	c-0.1-0.4-0.4-0.7-0.8-0.7c-0.5,0-0.7,0.3-0.9,0.7C99.3,32.1,99.3,33.4,99.8,34.6z M95.7,29.2c0.9,0.1,1.6,0.6,1.9,1.7
	c0.2,0.6,0.2,1.2,0.4,1.9c-0.1,0.6-0.2,1.4-0.5,2.1c-0.3,0.9-1.1,1.4-2.1,1.4c-1,0-1.7-0.5-2.1-1.4c-0.6-1.4-0.6-2.8,0-4.2
	C93.8,29.6,94.5,29.1,95.7,29.2z M94.6,34.6c0.1,0.3,0.5,0.6,0.8,0.7c0.4,0.1,0.7-0.3,0.9-0.7c0.2-0.6,0.3-1.2,0.4-1.9
	c-0.1-0.6-0.2-1.3-0.4-1.8c-0.1-0.3-0.5-0.6-0.8-0.7c-0.4-0.1-0.7,0.2-0.9,0.6C94.1,32.1,94.1,33.4,94.6,34.6z M92.7,36.2
	c-1.5,0-3,0-4.6,0c-0.2-0.5,0-0.9,0.4-1.2c0.7-0.6,1.4-1.3,2.1-2.1c0.3-0.3,0.5-0.6,0.6-1c0.4-1-0.4-1.8-1.4-1.6
	c-0.4,0.1-0.8,0.3-1.1,0.4c0,0-0.1,0-0.1-0.1c-0.4-0.8-0.4-1,0.5-1.3c0.6-0.2,1.3-0.3,1.9-0.2c1.3,0.2,2,1.4,1.5,2.7
	c-0.3,0.7-0.8,1.3-1.3,2c-0.3,0.4-0.7,0.7-1.2,1.2c0.9,0,1.8,0,2.7,0C92.7,35.5,92.7,35.8,92.7,36.2z M87.7,36.2c-1.5,0-3,0-4.5,0
	c-0.2-0.5-0.1-0.8,0.3-1.2c0.7-0.7,1.4-1.4,2.1-2.1c0.3-0.3,0.5-0.7,0.6-1.1c0.3-1-0.4-1.7-1.4-1.5c-0.4,0.1-0.8,0.3-1.2,0.5
	c0,0,0,0,0,0c-0.5-0.9-0.4-1.1,0.5-1.3c0.6-0.2,1.2-0.2,1.8-0.2c1.3,0.2,2,1.4,1.6,2.7c-0.3,0.9-0.9,1.6-1.6,2.3
	c-0.3,0.3-0.5,0.5-0.9,0.8c1,0,1.8,0,2.7,0C87.7,35.5,87.7,35.8,87.7,36.2z M81.6,35c0.1,0.3,0.1,0.7,0.2,1
	c-1.4,0.8-3.7,0.4-4.7-0.8c-1.1-1.3-1.1-3.6,0-4.9c1-1.3,3.3-1.7,4.8-1c-0.1,0.3-0.2,0.6-0.3,1c-1.3-0.4-2.6-0.5-3.5,0.8
	c-0.6,0.9-0.6,2.4,0,3.2C79.1,35.4,80.3,35.3,81.6,35z M75.1,32.3c0.9,0.4,1.3,1.2,1.1,2c-0.1,0.9-0.6,1.5-1.5,1.8
	c-0.9,0.3-1.7,0.2-2.5,0c-0.5-0.1-0.7-0.3-0.4-0.8c0.1-0.1,0.1-0.3,0.1-0.4c0.7,0.1,1.3,0.3,1.9,0.3c0.5,0,0.9-0.2,1.1-0.8
	c0.1-0.6-0.2-0.9-0.7-1.1c-0.4-0.2-0.9-0.4-1.3-0.6c-0.9-0.5-1.2-1.1-1.1-2c0.1-0.8,0.7-1.5,1.6-1.7c0.9-0.2,1.7-0.2,2.6,0.2
	c-0.1,0.4-0.2,0.7-0.3,1c-0.6-0.1-1.1-0.2-1.6-0.2c-0.4,0-0.9,0.2-1,0.7c-0.1,0.5,0.2,0.8,0.6,1C74.1,31.9,74.6,32.1,75.1,32.3z
	 M70.3,32.3c0.9,0.5,1.3,1.2,1.1,2.1c-0.1,0.9-0.6,1.5-1.5,1.7c-1.1,0.3-2.1,0.2-3.1-0.3c0.1-0.4,0.2-0.7,0.3-1
	c0.4,0.1,0.8,0.3,1.2,0.3c0.4,0,0.8,0,1.2-0.1c0.7-0.2,0.8-1.1,0.2-1.6c-0.4-0.2-0.8-0.3-1.2-0.6c-0.5-0.3-1.1-0.7-1.4-1.2
	c-0.5-0.8-0.1-2,0.8-2.4c1.1-0.6,2.1-0.5,3.3-0.1c-0.1,0.4-0.2,0.7-0.3,1c-0.6-0.1-1.1-0.2-1.6-0.2c-0.4,0-0.9,0.2-1,0.7
	c-0.1,0.5,0.2,0.8,0.6,1C69.4,31.9,69.9,32.1,70.3,32.3z M54.3,38.7c-0.4,0-0.9,0-1.4,0c3.4-10,13.7-20.8,28.7-22.1
	c17-1.5,30.3,9.4,34.9,22.1c0,0-0.1,0-0.1,0c-1.8,0.1-1.8,0.1-2.5-1.5C109,27,101,20.6,89.7,18.8C79.5,17.1,70.5,20,62.9,27
	c-3.4,3.1-6,6.9-7.7,11.2C55,38.6,54.8,38.8,54.3,38.7z M62.6,36.2c0-2.3,0-4.7,0-7.1c1.3,0,2.7,0,4,0c0,0.3,0,0.7,0,1
	c-0.9,0-1.8,0-2.7,0c0,0.7,0,1.3,0,1.9c0.9,0,1.7,0,2.6,0c0,0.4,0,0.7,0,1.1c-0.9,0-1.7,0-2.6,0c0,1.1,0,2,0,3
	C63.4,36.2,63.1,36.2,62.6,36.2z M40.4,43.8c2-17.6,17.8-37,41.8-38.3c25.8-1.4,44.3,18.5,46.8,38.3c-0.6,0-1.1,0-1.8,0
	c0-1.7,0-3.3,0-5.1c-0.3,0-0.5,0-0.7,0c-2.9,0-5.9,0-8.8,0c-0.4,0-0.6-0.1-0.8-0.5c-4.5-11-12.3-18.4-23.9-21.3
	c-12.3-3.1-23.3,0.1-32.5,8.8c-3.7,3.5-6.4,7.7-8.2,12.5c-0.1,0.4-0.3,0.5-0.7,0.5c-2.9,0-5.9,0-8.8,0c-0.2,0-0.4,0-0.7,0
	c0,1.7,0,3.4,0,5.1C41.6,43.8,41,43.8,40.4,43.8z M117.7,34.4c1.1,0.8,2.6,0,2.7-1.3c0-0.5-0.1-0.9-0.1-1.4c0-0.3,0.3-0.5,0.4-0.8
	c0.3,0.1,0.6,0.2,0.8,0.4c0.2,0.4,0.3,0.9,0.5,1.3c0.3-0.1,0.6-0.1,1-0.2c-0.1-1-0.4-1.8-1.2-2.4c-0.5-0.5-1.1-0.6-1.8-0.3
	c-0.6,0.3-0.9,0.8-1,1.5c0,0.4,0,0.8,0.1,1.2c0,0.4,0,0.8-0.5,1c-0.5,0.1-0.8-0.2-0.9-0.6c-0.2-0.5-0.3-1-0.5-1.5
	c-0.3,0.1-0.6,0.1-1,0.2C116.4,32.7,116.7,33.7,117.7,34.4z M112.8,27c1.3-0.8,2.6-1.7,3.8-2.5c0,0,0,0,0,0c-1,1.2-1.9,2.4-2.9,3.5
	c0.5,0.9,0.5,0.9,1.4,0.6c0.8-0.3,1.6-0.6,2.4-0.8c0.4-0.1,0.7-0.2,1.1-0.4c0,0,0,0.1,0,0.1c-1.2,0.9-2.3,1.9-3.5,2.8
	c0.3,0.4,0.5,0.7,0.8,1c1.6-1.3,3.1-2.5,4.7-3.8c-0.1-0.2-0.2-0.3-0.3-0.5c-0.7-1-0.7-1-1.9-0.6c-1,0.3-1.9,0.7-2.9,1
	c0.9-1.1,1.8-2.2,2.7-3.3c-0.4-0.5-0.7-1-1.1-1.5c-1.7,1.1-3.4,2.1-5.1,3.2C112.3,26.4,112.6,26.7,112.8,27z M111.8,25.9
	c0.2-0.3,0.5-0.5,0.8-0.8c-0.6-0.6-1.2-1.1-1.7-1.6c0.3-0.4,0.7-0.7,1.1-1.2c0.5,0.5,0.9,1.1,1.4,1.6c0.3-0.3,0.6-0.5,0.9-0.8
	c-0.6-0.5-1.1-1-1.6-1.4c0.3-0.4,0.6-0.7,1-1.1c0.5,0.6,1,1.2,1.4,1.7c0.3-0.3,0.6-0.5,0.7-0.6c-0.8-0.9-1.7-1.8-2.4-2.6
	c-1.5,1.4-2.9,2.8-4.2,4.1C110.1,24,110.9,24.9,111.8,25.9z M106.9,21.4c0.2,0.2,0.5,0.4,0.8,0.6c1-1.3,2-2.6,3-3.9
	c0.5,0.3,0.9,0.7,1.3,1c0.2-0.3,0.4-0.6,0.7-0.9c-1.2-0.9-2.4-1.9-3.7-2.8c-0.2,0.3-0.5,0.6-0.7,0.9c0.4,0.3,0.8,0.7,1.3,1
	c-1,1.3-2,2.6-3,3.9C106.8,21.3,106.8,21.4,106.9,21.4z M104.4,19.5c0.8,0.1,1.4-0.1,1.8-0.7c0.4-0.6,0.4-1.3,0-1.9
	c-0.2-0.4-0.5-0.7-0.7-1.1c-0.1-0.2-0.2-0.7-0.1-0.8c0.2-0.2,0.6-0.2,0.8-0.1c0.4,0.2,0.8,0.6,1.2,0.9c0.2-0.2,0.5-0.4,0.7-0.7
	c-0.5-0.7-1.3-1.3-2.1-1.4c-0.7-0.2-1.4,0-1.9,0.6c-0.5,0.6-0.4,1.3,0,1.9c0.2,0.4,0.5,0.7,0.7,1c0.2,0.3,0.4,0.6,0.1,1
	c-0.3,0.3-0.7,0.3-1,0c-0.5-0.3-0.9-0.7-1.3-1c-0.2,0.2-0.4,0.4-0.7,0.7C102.5,18.7,103.5,19.4,104.4,19.5z M100.3,17.4
	c0.2-0.6,0.5-1.1,0.7-1.6c0.2-0.5,0.5-0.9,1-1.2c0.9-0.6,1.7-1.2,2.6-1.9c-0.3-0.1-0.6-0.2-0.8-0.4c-0.4-0.2-0.7-0.2-1,0.2
	c-0.5,0.5-1,1-1.6,1.5c0-0.9,0-1.7,0-2.4c0-0.2-0.1-0.4-0.2-0.5c-0.3-0.2-0.7-0.3-1.2-0.5c0.1,1.2,0.1,2.2,0.3,3.3
	c0.2,1.2-0.7,2-0.9,3C99.5,17,99.8,17.2,100.3,17.4z M96.1,15.7c0.8,0,1.3-0.3,1.6-1.1c0.3-0.8,0.1-1.4-0.4-1.9
	c-0.3-0.3-0.7-0.5-1-0.9c-0.2-0.2-0.2-0.5-0.3-0.8c0.3-0.1,0.6-0.3,0.9-0.2c0.4,0.1,0.8,0.3,1.3,0.6c0.2-0.3,0.3-0.6,0.5-0.8
	c-0.9-0.8-2.1-1.1-3-0.8c-1.1,0.4-1.5,1.6-0.8,2.5c0.3,0.4,0.7,0.7,1.1,1.1c0.3,0.3,0.5,0.6,0.3,1c-0.2,0.4-0.6,0.4-1,0.3
	c-0.5-0.2-1-0.5-1.5-0.7c-0.2,0.3-0.3,0.5-0.5,0.9C94.3,15.3,95.1,15.7,96.1,15.7z M89.2,14.2c0.5,0.1,0.9,0.1,1.3,0.2
	c0-0.2,0.1-0.4,0.1-0.5c0-1.4,0.5-2.5,1.5-3.5c0.1-0.1,0.2-0.2,0.2-0.3c0.3-0.4,0.6-0.8,1-1.3c-0.3-0.1-0.6-0.1-0.8-0.1
	c-0.5-0.1-0.8,0-1,0.4c-0.3,0.6-0.7,1.2-1.1,1.9c-0.2-0.9-0.4-1.6-0.6-2.3c-0.1-0.3-0.2-0.4-0.5-0.5c-0.3,0-0.7-0.1-1.1-0.1
	c0.4,1.1,0.8,2.1,1.1,3.1c0.1,0.4,0.2,0.9,0.1,1.4C89.4,13.1,89.3,13.6,89.2,14.2z M82.9,9c0.5,0,1,0,1.6,0c0,1.7,0,3.3,0,4.9
	c0.4,0,0.9,0,1.4,0c0-1.6,0-3.2,0-4.9c0.6,0,1.1,0,1.6,0c0-0.4,0-0.7,0-1.2c-1.5,0-3.1,0-4.6,0C82.9,8.3,82.9,8.6,82.9,9z
	 M78.9,14.4c1.3-0.1,2.5-0.3,3.8-0.4c0-0.4-0.1-0.7-0.1-1.1c-0.8,0.1-1.6,0.2-2.5,0.2c0-0.5-0.1-1-0.1-1.4c0.8-0.1,1.5-0.2,2.2-0.3
	c0-0.4-0.1-0.7-0.1-1.1c-0.8,0.1-1.5,0.1-2.2,0.2c0-0.5-0.1-0.8-0.1-1.3c0.8-0.1,1.5-0.2,2.4-0.3C82,8.7,82,8.3,82,8
	c-1.3,0.1-2.4,0.3-3.7,0.4C78.5,10.4,78.7,12.4,78.9,14.4z M76.2,15c-0.2-0.8-0.3-1.6-0.5-2.4c0.7-0.2,1.4-0.3,2.1-0.5
	c-0.1-0.4-0.2-0.7-0.2-1c-0.7,0.2-1.4,0.3-2.1,0.4c-0.1-0.5-0.2-0.9-0.3-1.4c0.8-0.2,1.5-0.4,2.2-0.5c-0.1-0.4-0.1-0.7-0.2-1.1
	c-1.2,0.3-2.4,0.5-3.6,0.8c0.4,2,0.9,3.9,1.3,5.9C75.4,15.2,75.8,15.1,76.2,15z M69.6,17.1c1.3-0.3,1.3-0.3,1.2-1.5
	c0-0.4,0.1-0.6,0.5-0.8c1.1-0.4,1.1-0.4,1.8,0.5c0.1,0.1,0.4,0.3,0.5,0.3c0.4-0.1,0.7-0.2,1.1-0.4c-1.3-1.7-2.6-3.4-3.8-5
	c-0.6,0.2-1.1,0.4-1.7,0.6C69.3,13,69.5,15,69.6,17.1z M64,15.1c0.3,0.6,0.8,0.9,1.4,0.9c0.4,0,0.9,0,1.3-0.1c0.4,0,0.8,0,1,0.5
	c0.1,0.4-0.2,0.7-0.5,0.9c-0.5,0.2-1,0.4-1.6,0.5c0.1,0.3,0.2,0.6,0.3,1c1.1-0.1,2-0.5,2.7-1.3c0.5-0.6,0.5-1.2,0.2-1.8
	c-0.3-0.6-0.8-1-1.5-1c-0.4,0-0.9,0.1-1.3,0.1c-0.3,0-0.8,0-0.8-0.4c0-0.3,0.2-0.6,0.5-0.8c0.4-0.2,0.8-0.3,1.3-0.5
	c-0.1-0.3-0.1-0.6-0.2-1c-0.9,0-2,0.5-2.5,1.2C63.9,13.9,63.7,14.5,64,15.1z M60.8,22.9c0.7-0.6,1.5-1.1,2.1-1.8
	c0.8-0.7,1.1-1.7,0.8-2.8c-0.5-1.8-2.1-2.9-3.7-2.3c-1.1,0.4-2,1.2-2.9,2.1C58.3,19.7,59.5,21.2,60.8,22.9z M56.4,26.2
	c1.5,0,2.9-1.4,2.9-2.9c0-1.6-1.7-3.3-3.3-3.3c-1.5,0-2.9,1.4-2.9,2.9C53.2,24.5,54.8,26.2,56.4,26.2z M52.5,31
	c1.5,0,2.8-1.3,2.9-2.9c0-1.5-1.6-3.2-3.3-3.2c-1.5,0-2.9,1.3-2.9,2.9C49.1,29.4,50.7,31,52.5,31z M51.5,35.6
	c0.2-0.4,0.4-0.8,0.6-1.2c-0.8-0.4-1.4-0.7-2.2-1.1c0.3-0.7,0.6-1.3,0.9-2c-0.3-0.2-0.6-0.3-1-0.5c-0.3,0.7-0.7,1.3-1,2
	c-0.4-0.2-0.8-0.4-1.3-0.6c0.3-0.7,0.7-1.4,1-2.1c-0.3-0.2-0.6-0.3-1-0.5c-0.5,1.1-1.1,2.2-1.6,3.3C47.9,33.8,49.7,34.7,51.5,35.6z
	 M51.7,26.3c1.1,0.1,1.9,0.6,2.3,1.6c0.4,0.9-0.2,1.9-1.4,1.9c-0.9-0.1-1.8-0.6-2.2-1.6C50,27.2,50.7,26.2,51.7,26.3z M55.7,21.3
	c1,0,2.3,1.2,2.3,2.2c0.1,0.9-0.8,1.6-1.7,1.3c-0.9-0.3-1.6-0.9-1.9-1.9C54.2,22.1,54.8,21.3,55.7,21.3z M61,17.2
	c0.9,0.3,1.4,1.1,1.5,2c0.1,1-0.5,1.5-1.3,2c-0.8-1.1-1.6-2.1-2.4-3.2C59.4,17.4,60.1,16.9,61,17.2z M70.6,14
	c-0.1-0.8-0.2-1.6-0.3-2.6c0.6,0.8,1,1.4,1.5,2.1C71.4,13.7,71,13.9,70.6,14z M42.3,67.4c0.1,0,0.3,0.3,0.4,0.5
	c1.7,4,3.8,7.7,6.5,11c7.2,8.9,16.4,14.6,27.6,16.6c11.8,2.1,22.9-0.2,33-6.8c7.8-5.1,13.5-12.1,17.1-20.7c0.2-0.4,0.4-0.6,0.9-0.6
	c0.4,0,0.8,0,1.2,0c0,0,0.1,0,0.2,0.1c-0.5,1.2-1,2.4-1.6,3.5c-5.9,11.9-15.1,20.2-27.6,24.5c-4.1,1.4-8.4,2.2-12.7,2.4
	c-0.2,0-0.3,0.1-0.5,0.1c-1.2,0-2.5,0-3.7,0c-0.7-0.1-1.4-0.1-2-0.2c-11.1-1-20.7-5.3-28.8-13c-5-4.8-8.8-10.5-11.4-17
	c-0.1-0.1-0.1-0.3-0.2-0.5C41.1,67.3,41.7,67.3,42.3,67.4z"/>
</svg>
