<?xml version="1.0" encoding="utf-8"?>
<!-- Generator: Adobe Illustrator 18.0.0, SVG Export Plug-In . SVG Version: 6.00 Build 0)  -->
<!DOCTYPE svg PUBLIC "-//W3C//DTD SVG 1.1//EN" "http://www.w3.org/Graphics/SVG/1.1/DTD/svg11.dtd">
<svg version="1.1" id="Слой_1" xmlns:ev="http://www.w3.org/2001/xml-events"
	 xmlns="http://www.w3.org/2000/svg" xmlns:xlink="http://www.w3.org/1999/xlink" x="0px" y="0px" viewBox="165.4 0 113.6 95"
	 enable-background="new 165.4 0 113.6 95" xml:space="preserve">
<path fill="#AB9359" d="M275.6,56.5c1.1,1.9,2.3,3.8,3.4,5.7c0,0.1,0,0.2,0,0.3c-6.8,0-13.7,0-20.6,0c0-1.1,0-2.2,0-3.3
	c2.1,0,4.1,0,6.2,0c0-5.6,0-11.1,0-16.7c4.8,0,9.6,0,14.3,0c0,0.1,0,0.2,0,0.3c-1.9,3.1-3.7,6.3-5.5,9.4c-0.1,0.2-0.1,0.5,0.1,0.7
	C274.2,54.2,274.9,55.4,275.6,56.5z M267.2,40.8c-2.2-13-8.5-23.4-19.3-30.9c-8.1-5.7-17.2-8.3-27.1-8c-23.3,0.7-41.2,18.8-43.7,39
	c-0.6,0-1.1,0-1.8,0c0.2-1.3,0.4-2.5,0.7-3.8c3.9-17.3,16.9-30.9,34-35.5c2.8-0.8,5.7-1.3,8.6-1.5c0.2,0,0.3-0.1,0.5-0.1
	c2.1,0,4.2,0,6.2,0c1,0.1,2,0.3,3.1,0.4c9.1,1.2,17.2,4.8,24.2,10.7c9.1,7.8,14.6,17.6,16.4,29.5c0,0,0,0.1,0,0.2
	C268.4,40.8,267.8,40.8,267.2,40.8z M179.6,42.6c0,5.5,0,11,0,16.6c2.2,0,4.3,0,6.4,0c0,1.2,0,2.2,0,3.3c-6.9,0-13.8,0-20.7,0
	c0,0,0-0.1,0-0.1c1.9-3.2,3.8-6.4,5.7-9.6c0.1-0.2,0-0.5-0.1-0.7c-1.3-2.2-2.6-4.4-3.9-6.6c-0.5-0.9-1.1-1.7-1.6-2.6
	c0-0.1,0-0.2,0-0.3c4.4,0,8.9,0,13.3,0C178.9,42.6,179.2,42.6,179.6,42.6z M220.7,92.5c-20.4-0.6-35.1-14.6-40.2-28.1
	c2.4,0,4.8,0,7.2,0c0-1.7,0-3.4,0-5.1c0.6,0,1.1,0,1.5,0c0.2,0,0.4,0.3,0.5,0.5c1.4,3.7,3.4,7.1,6,10.1c5.8,6.7,13.1,10.8,22,11.9
	c15.8,2,30.7-7,36.5-21.8c0.3-0.7,0.6-0.9,1.3-0.8c0.3,0,0.6,0,1,0c0,1.7,0,3.4,0,5.1c2.4,0,4.8,0,7.2,0
	C258.3,78.6,242.6,93.1,220.7,92.5z M197.2,76.4c-1.4,0.4-2.4,1.8-2.4,3.2c0.1,1.3,1.3,2.6,2.7,2.9c0.1-0.3,0.3-0.5,0.4-0.8
	c-0.9-0.5-1.8-1-1.7-2.2c0.1-0.9,0.6-1.6,1.4-1.9c1.2-0.4,1.9,0.3,2.6,1.2c0.3-0.2,0.5-0.4,0.8-0.6C200.2,76.8,198.5,76,197.2,76.4z
	 M202.2,78.7c-1,1.8-2,3.5-3,5.2c1.1,0.6,2.2,1.3,3.3,1.9c0.2-0.3,0.3-0.6,0.5-0.9c-0.7-0.4-1.4-0.9-2.1-1.3
	c0.3-0.5,0.5-0.9,0.7-1.3c0.7,0.4,1.3,0.7,1.9,1.1c0.2-0.4,0.3-0.6,0.5-0.9c-0.6-0.4-1.2-0.8-1.9-1.1c0.2-0.4,0.4-0.7,0.6-1.1
	c0.7,0.4,1.4,0.8,2,1.1c0.2-0.3,0.3-0.6,0.5-0.9C204.3,79.9,203.3,79.3,202.2,78.7z M209,82.1c-0.7-0.3-1.5-0.6-2.3-0.9
	c-0.7,1.9-1.4,3.7-2.2,5.5c0.4,0.2,0.8,0.3,1.2,0.5c0.3-0.8,0.6-1.4,0.9-2.1c0.9,0.2,1.1,0.4,1,1.1c0,0.2,0,0.4-0.1,0.6
	c-0.1,1.2-0.1,1.2,1.2,1.4c0-1,0-2,0-3c0.9-0.3,1.4-0.7,1.4-1.5C210.3,82.9,209.7,82.4,209,82.1z M211.7,83.1
	c-0.1,0.4-0.2,0.7-0.2,1.1c0.5,0.1,1,0.3,1.6,0.4c-0.4,1.6-0.7,3.2-1.1,4.7c0.5,0.1,0.8,0.2,1.3,0.3c0.4-1.6,0.7-3.1,1.1-4.7
	c0.6,0.1,1.1,0.2,1.6,0.3c0.1-0.4,0.1-0.7,0.2-1.1C214.6,83.7,213.1,83.4,211.7,83.1z M217.4,84.2c-0.2,2-0.4,3.9-0.7,5.9
	c0.5,0.1,0.9,0.1,1.3,0.1c0.2-2,0.4-3.9,0.6-5.9C218.2,84.3,217.9,84.3,217.4,84.2z M223.9,84.5c-1.2,0-2.4,0-3.5,0c0,2,0,4,0,6
	c0.5,0,0.8-0.1,1.3-0.1c0-0.8,0-1.6,0-2.4c0.7,0,1.4,0,2.2,0c0-0.4-0.1-0.7-0.1-1.1c-0.7,0-1.4,0-2.1,0c0-0.5,0-0.9,0-1.3
	c0.7,0,1.5,0,2.2,0C223.9,85.2,223.9,84.8,223.9,84.5z M226.9,84.2c-0.5,0.1-0.9,0.1-1.3,0.2c0.2,2,0.4,3.9,0.7,5.9
	c0.5-0.1,0.9-0.1,1.3-0.2C227.3,88.1,227.1,86.2,226.9,84.2z M233.7,87.8c-1,0.4-1.9,0.8-2.8,0c-0.7-0.6-0.8-1.5-0.6-2.3
	c0.4-1.2,1.5-1.3,2.5-1.3c0-0.4,0-0.7,0-1c-1.4-0.3-3.1,0.5-3.7,1.8c-0.6,1.3-0.1,3.1,0.9,3.9c1,0.8,2.9,0.7,4-0.3
	C234,88.3,233.9,88.1,233.7,87.8z M235.9,81.8c-0.4,0.1-0.5,0.3-0.4,0.7c0.1,0.7,0.2,1.5,0.2,2.2c0.1,1.1,0.2,2.3,0.4,3.4
	c1.2-0.3,1.2-0.3,1.1-2c0.1-0.1,0.2-0.1,0.3-0.2c1.1-0.5,1.1-0.5,2,0.4c0.1,0.1,0.5,0.2,0.7,0.2c0.3,0,0.5-0.2,0.9-0.4
	c-0.2-0.3-0.4-0.5-0.6-0.7c-0.9-1-1.7-2.1-2.6-3.1C237,81.3,237,81.3,235.9,81.8z M242.8,78.3c-1.3,0.8-2.6,1.5-3.9,2.3
	c0.2,0.3,0.4,0.6,0.5,0.9c0.5-0.3,0.9-0.5,1.4-0.8c0.8,1.4,1.6,2.8,2.5,4.2c0.4-0.3,0.7-0.5,1.1-0.7c-0.8-1.4-1.6-2.7-2.4-4.2
	c0.5-0.3,0.9-0.6,1.4-0.9C243.1,78.9,243,78.6,242.8,78.3z M249.8,79.1c-0.7,0.5-1.3,1-1.9,1.5c-0.3-0.4-0.6-0.8-0.9-1.2
	c0.6-0.5,1.1-0.9,1.7-1.4c-0.2-0.3-0.4-0.5-0.6-0.8c-0.6,0.5-1.2,0.9-1.7,1.3c-0.3-0.3-0.5-0.7-0.8-1c0.6-0.5,1.2-1,1.8-1.5
	c-0.2-0.3-0.4-0.5-0.7-0.8c-0.8,0.6-1.5,1.2-2.2,1.7c-0.2,0.2-0.4,0.3-0.6,0.5c1.3,1.6,2.5,3.1,3.7,4.7c1-0.8,2-1.6,2.9-2.4
	C250.2,79.6,250,79.3,249.8,79.1z M236.6,82.9C236.6,82.8,236.7,82.8,236.6,82.9c0.6,0.5,1,1.1,1.6,1.8c-0.4,0.2-0.8,0.3-1.3,0.5
	C236.8,84.4,236.7,83.6,236.6,82.9z M206.9,84.3c0.3-0.7,0.5-1.2,0.8-1.9c0.5,0.4,0.9,0.7,1.2,1.1c0.1,0.1-0.1,0.7-0.3,0.8
	C208.1,84.4,207.6,84.3,206.9,84.3z M218.2,79.3c14.4,1.8,27.9-6.1,33.5-19.5c0.2-0.5,0.4-0.6,0.9-0.6c0.4,0,0.9,0,1.3,0
	c-3.6,10.9-15.4,22.4-31.9,22.3c-16.2-0.1-28-11.3-31.6-22.3c0.6,0,1.3,0,2,0c1.3,3.2,3,6.1,5.2,8.7
	C202.9,74.4,209.8,78.3,218.2,79.3z M181.4,37.6c27.1,0,54.3,0,81.4,0c0,6.6,0,13.2,0,19.8c-27.1,0-54.2,0-81.4,0
	C181.4,50.8,181.4,44.2,181.4,37.6z M251.3,44.8c0.8-0.4,1.6-0.8,2.4-1.2c0,3.7,0,7.2,0,10.8c0.9,0,1.8,0,2.7,0c0-4.5,0-9,0-13.6
	c-0.9,0.1-1.7,0-2.4,0.2c-1,0.3-1.9,0.9-2.8,1.4c-0.1,0.1-0.3,0.3-0.3,0.4C251,43.4,251.1,44,251.3,44.8z M240.7,51.9
	c0.7,1.7,1.9,2.7,3.8,2.7c1.9,0,3.2-1.1,3.9-2.8c0.6-1.4,0.7-2.8,0.7-4.3c0-1.5-0.2-2.9-0.8-4.3c-0.5-1.1-1.3-2-2.5-2.4
	c-2.2-0.7-4.3,0.3-5.2,2.6C239.6,46.2,239.6,49.1,240.7,51.9z M229.9,52c0.7,1.6,1.9,2.6,3.7,2.6c1.8,0,3-0.9,3.8-2.5
	c0.7-1.4,0.9-3,0.9-4.5c0-1.7-0.2-3.1-0.7-4.3c-0.5-1.2-1.3-2.1-2.6-2.5c-2.2-0.7-4.2,0.3-5.2,2.7C228.7,46.2,228.8,49.1,229.9,52z
	 M218.6,47.1c0.5,1.6,2,2.7,3.7,2.5c0.8-0.1,1.5-0.4,2.3-0.7c-0.7,2.6-2.7,3.2-5.1,3.2c0,0.8,0,1.6,0,2.3c0.7,0,1.3,0.1,1.9,0
	c2.4-0.3,4.3-1.4,5.3-3.6c1.1-2.2,1.2-4.5,0.6-6.8c-0.4-1.6-1.3-2.8-2.9-3.3c-1.8-0.5-3.4-0.2-4.7,1.2
	C218.3,43.5,218,45.2,218.6,47.1z M205.4,51.2c1,2.1,2.7,3.3,5.1,3.3c2.3,0,4.2-0.9,5.4-3c0.7-1.3,1-2.8,1.1-4.4c-0.2-1-0.3-2-0.6-3
	c-0.7-2.4-2.7-4-4.9-4.2c-2.7-0.2-4.8,0.9-6,3.3C204.3,45.9,204.3,48.6,205.4,51.2z M195,54c1.6,0.6,3.3,0.8,5,0.3
	c1.7-0.5,2.9-1.6,3.1-3.4c0.3-1.9-0.4-3.3-2-4.3c-0.4-0.2-0.9-0.4-1.3-0.6c-0.6-0.3-1.2-0.5-1.7-0.9c-0.9-0.6-0.8-1.8,0.3-2.2
	c0.4-0.2,0.9-0.2,1.3-0.2c0.8,0.1,1.5,0.3,2.3,0.5c0.2-0.6,0.4-1.3,0.5-2.1c0-0.1-0.2-0.4-0.4-0.5c-1.7-0.6-3.4-0.8-5.1-0.1
	c-1.5,0.6-2.4,1.8-2.5,3.4c-0.1,1.5,0.5,2.7,1.7,3.5c0.6,0.4,1.3,0.7,2,1.1c0.4,0.2,0.9,0.4,1.3,0.7c0.5,0.3,0.7,0.9,0.6,1.5
	c-0.1,0.6-0.5,1-1.1,1.1c-0.6,0.1-1.2,0.1-1.7,0.1c-0.8-0.1-1.6-0.4-2.4-0.7c-0.1,0.6-0.3,1.3-0.4,1.9C194.4,53.6,194.6,53.8,195,54
	z M189.5,54.3c1,0,1.9,0,2.8,0c0-2.4,0-4.7,0-7c0-2.1,0-4.3,0-6.4c0-0.2-0.2-0.5-0.4-0.6c-0.8-0.1-1.6,0-2.4,0
	C189.5,45,189.5,49.7,189.5,54.3z M210.8,42.5c1.1,0,1.9,0.6,2.3,1.6c0.4,1,0.6,2.1,0.9,3.1c-0.1,0-0.1,0-0.2,0
	c0,1.3-0.2,2.5-0.9,3.6c-1.2,1.7-3.6,1.7-4.5-0.1c-1.2-2.2-1.1-4.4-0.1-6.6C208.9,43.1,209.7,42.5,210.8,42.5z M222.8,42.8
	c0.6,0,1.2,0.3,1.4,0.9c0.3,0.6,0.4,1.3,0.6,2c-0.1,1-0.6,1.6-1.5,1.7c-0.9,0.2-1.7-0.2-2-1.1c-0.3-0.9-0.3-1.7,0.1-2.6
	C221.7,43.2,222.2,42.9,222.8,42.8z M233.7,42.9c0.8,0,1.2,0.5,1.3,1.2c0.3,1.1,0.4,2.3,0.6,3.4c-0.2,1.2-0.3,2.3-0.6,3.4
	c-0.1,0.6-0.5,1.2-1.3,1.3c-0.6,0-1.2-0.4-1.4-1.2c-0.7-2.3-0.7-4.6,0-6.9C232.6,43.5,233,43,233.7,42.9z M243.5,43.6
	c0.6-1,1.7-1,2.2,0c0.4,0.8,0.5,1.8,0.6,2.7c0.1,0.4,0,0.8,0,1.2c0,0,0.1,0,0.1,0c-0.1,1-0.2,1.9-0.4,2.9c-0.1,0.3-0.1,0.7-0.4,1
	c-0.3,0.3-0.7,0.7-1.1,0.7c-0.4,0-1-0.4-1.1-0.7c-0.3-0.8-0.6-1.7-0.6-2.5c-0.1-1.3,0.1-2.7,0.2-4C243.1,44.5,243.3,44,243.5,43.6z
	 M220.2,13.5c17.3-1,29.8,10.7,33.8,22.2c-0.1,0-0.1,0-0.1,0c-1.8,0.1-1.7,0.1-2.5-1.5c-5.1-10.5-13.3-16.9-24.9-18.6
	c-14.1-2-27.8,5.7-33.6,18.8c-0.4,1-0.9,1.4-1.9,1.2c-0.2,0-0.4,0-0.5,0C193.5,25.9,204.2,14.4,220.2,13.5z M177.8,40.8
	c2.3-18.8,19-37.3,42.4-38.3c24.8-1,43.5,17.7,46.3,38.3c-0.6,0-1.1,0-1.8,0c0-1.7,0-3.3,0-5.1c-0.4,0-0.6,0-0.9,0
	c-2.8,0-5.5,0-8.3,0c-0.6,0-0.9-0.2-1.1-0.8c-4.4-10.8-12.3-18-23.6-21c-15.4-4.1-31.8,3.2-39.2,17.4c-0.6,1.2-1.2,2.4-1.6,3.7
	c-0.2,0.6-0.5,0.8-1.2,0.8c-2.8,0-5.5,0-8.3,0c-0.3,0-0.5,0-0.9,0c0,1.7,0,3.4,0,5.1C179,40.8,178.4,40.8,177.8,40.8z M250.9,24.8
	c0.7-0.4,1.3-0.8,1.9-1.2c0.6-0.4,1.3-0.8,1.9-1.2c-0.8,1.1-1.7,2.1-2.6,3.1c-0.3,0.3-0.3,0.5-0.1,0.8c0.2,0.3,0.4,0.4,0.8,0.3
	c1.3-0.5,2.7-0.8,4.2-1.3c-1.3,1-2.5,1.9-3.8,2.8c0.3,0.4,0.5,0.7,0.7,1.1c1.6-1.3,3.2-2.5,4.8-3.7c-0.4-0.5-0.7-1-1-1.5
	c-1.3,0.4-2.6,0.9-4.1,1.3c1-1.1,1.8-2.2,2.7-3.3c-0.4-0.5-0.7-1-1-1.5c-1.7,1.1-3.4,2.1-5.2,3.1C250.4,24.1,250.6,24.4,250.9,24.8z
	 M249,22.7c0.3-0.3,0.5-0.5,0.9-0.8c-0.6-0.6-1.3-1.1-1.9-1.6c0.4-0.4,0.7-0.7,1.2-1.2c0.4,0.6,0.8,1.1,1.3,1.8
	c0.4-0.4,0.6-0.7,0.9-1c-0.6-0.5-1.1-1-1.7-1.4c0.3-0.3,0.6-0.6,0.9-0.9c0.6,0.6,1.1,1.1,1.7,1.6c0.3-0.3,0.5-0.5,0.6-0.6
	c-0.9-0.9-1.7-1.8-2.5-2.5c-1.4,1.4-2.8,2.7-4.1,4C247.4,20.8,248.2,21.8,249,22.7z M244,18.1c1-1.4,1.9-2.7,2.9-4
	c0.5,0.3,0.9,0.6,1.4,0.9c0.2-0.3,0.4-0.6,0.6-0.9c-1.3-0.9-2.5-1.8-3.8-2.7c-0.2,0.3-0.4,0.6-0.6,0.9c0.5,0.3,0.9,0.6,1.3,1
	c-1,1.4-1.9,2.7-2.8,4C243.3,17.7,243.6,17.9,244,18.1z M239.5,15.2c0.8,0.1,1.4-0.2,1.8-0.8c0.4-0.6,0.3-1.3-0.1-1.9
	c-0.3-0.4-0.6-0.7-0.8-1c-0.1-0.2-0.1-0.6-0.2-0.9c0.3,0,0.7-0.2,0.9-0.1c0.4,0.2,0.8,0.5,1.1,0.7c0.2-0.3,0.4-0.5,0.6-0.7
	c-0.5-0.7-1.2-1.1-2-1.3c-0.7-0.2-1.4,0-1.8,0.7c-0.4,0.6-0.4,1.2,0,1.9c0.2,0.3,0.6,0.6,0.8,1c0.1,0.3,0.1,0.7,0.2,1
	c-0.4,0-0.8,0.2-1.1,0.1c-0.5-0.2-0.9-0.6-1.3-0.9c-0.2,0.2-0.4,0.5-0.6,0.7C237.7,14.5,238.6,15.1,239.5,15.2z M234.2,12.9
	c0.1-0.4,0.3-0.8,0.4-1.2c0.2-0.9,0.6-1.5,1.3-2.1c0.7-0.6,1.3-1.2,2-1.8c-0.2-0.1-0.4-0.1-0.5-0.2c-0.6-0.3-1-0.2-1.4,0.4
	c-0.3,0.5-0.8,0.9-1.3,1.5c-0.1-0.9-0.1-1.6-0.2-2.3c0-0.2-0.3-0.5-0.5-0.6c-0.3-0.2-0.6-0.2-1-0.3c0.3,2.1,1.2,4.2-0.1,6.3
	C233.4,12.7,233.7,12.8,234.2,12.9z M229,11.4c0.7-0.2,1.1-0.7,1.2-1.4c0.1-0.7-0.1-1.2-0.6-1.6c-0.4-0.3-0.8-0.5-1.1-0.8
	c-0.2-0.2-0.3-0.5-0.5-0.8c0.3-0.1,0.6-0.3,0.9-0.3c0.4,0,0.8,0.2,1.3,0.3c0.1-0.2,0.2-0.3,0.2-0.5c0-0.1,0.1-0.2,0.2-0.4
	c-0.9-0.5-1.7-0.7-2.6-0.5c-0.6,0.1-1.1,0.5-1.3,1.2c-0.2,0.6,0,1.2,0.5,1.6c0.4,0.3,0.8,0.5,1.1,0.8c0.3,0.2,0.7,0.5,0.5,0.9
	c-0.2,0.2-0.7,0.4-1,0.4c-0.5,0-1-0.3-1.5-0.5c-0.1,0.3-0.2,0.6-0.4,0.9C226.9,11.4,227.9,11.7,229,11.4z M218.7,7.9
	c0.7,1,0.2,2.1,0.6,3.1c0.4,0,0.7-0.1,1.2-0.1c0-0.5,0.1-0.9,0-1.2c-0.1-0.9,0.1-1.7,0.5-2.4c0.4-0.8,0.8-1.6,1.2-2.4
	c-0.2,0-0.4,0-0.5,0c-0.7-0.1-1.1,0.2-1.3,0.9c-0.1,0.6-0.4,1.2-0.6,1.8c-0.3-0.5-0.5-1-0.7-1.4c-0.6-1.2-0.6-1.2-1.9-1.1
	c0,0-0.1,0-0.1,0.1C217.5,6.2,218,7.1,218.7,7.9z M212.1,7.3c0.4,1.6,0.7,3.2,1.1,4.8c0.4-0.1,0.8-0.2,1.3-0.3
	c-0.4-1.6-0.7-3.2-1.1-4.8c0.5-0.1,1-0.3,1.6-0.4c-0.1-0.4-0.2-0.7-0.2-1.1c-1.5,0.4-3,0.7-4.5,1c0.1,0.4,0.2,0.7,0.3,1.1
	C211.1,7.5,211.6,7.4,212.1,7.3z M210.4,12.9c-0.7-1.9-1.4-3.8-2.1-5.7c-0.5,0.2-0.8,0.3-1.2,0.5c0.7,2,1.4,3.8,2.1,5.7
	C209.6,13.2,209.9,13,210.4,12.9z M207.7,13.8c-0.2-0.4-0.4-0.7-0.5-1c-0.8,0.4-1.4,0.7-2.1,1.1c-0.7-1.5-1.5-2.9-2.2-4.4
	c-0.4,0.2-0.7,0.4-1.2,0.6c0.9,1.8,1.8,3.6,2.7,5.4C205.5,14.9,206.6,14.4,207.7,13.8z M197.6,16.8c0.3,0.9,0.6,1.7,0.9,2.7
	c0.4-0.5,1.4-0.5,0.9-1.4c-0.4-0.8-0.2-1.2,0.5-1.6c0.2-0.1,0.4-0.3,0.6-0.4c0.4,0.3,0.9,0.6,1.3,1c0.4-0.3,0.7-0.5,1.2-0.8
	c-1.7-1.3-3.4-2.6-5-3.8c-0.3,0.2-0.6,0.5-0.9,0.6c-0.5,0.3-0.6,0.6-0.4,1.1C197.1,15,197.3,15.9,197.6,16.8z M195.1,22.8
	c1.7-0.8,2.2-2.6,0.9-4c-0.8-1-1.7-1.9-2.6-2.8c-0.4,0.4-0.7,0.7-1,1c0.5,0.5,0.9,0.9,1.3,1.4c0.5,0.5,0.9,0.9,1.4,1.4
	c0.6,0.6,0.6,1.2,0.2,1.7c-0.4,0.5-1.1,0.5-1.7-0.1c-0.1-0.1-0.2-0.2-0.3-0.3c-0.7-0.8-1.5-1.7-2.2-2.5c-0.1,0.1-0.1,0.2-0.2,0.3
	c-0.3,0.3-0.6,0.6-1,0.8c0.1,0,0.1-0.1,0.2-0.1c0.8,0.9,1.6,1.9,2.5,2.7C193.2,22.9,194.1,23.2,195.1,22.8z M188.1,28.4
	c1.2,0.6,2.4,0.4,3.3-0.5c0.4-0.4,0.8-0.8,1.3-1.1c0.4-0.3,0.8-0.7,1.3-1c-0.3-0.3-0.4-0.6-0.7-0.9c-0.4,0.3-0.7,0.6-1,1
	c-0.3-2.1-2.1-3.6-3.9-3.2c-1.2,0.2-2.2,1.3-2.3,2.5C185.9,26.5,186.7,27.7,188.1,28.4z M188.8,24c0.8,0.1,1.6,0.6,2.1,1.5
	c0.5,1-0.2,2-1.2,1.9c-1-0.1-1.8-0.6-2.3-1.5C186.9,25,187.5,24,188.8,24z M198.7,16.2c-0.3-0.8-0.6-1.5-0.9-2.4
	c0.8,0.6,1.4,1.1,2,1.6C199.4,15.7,199.1,15.9,198.7,16.2z M179.6,64.4c0.2,0,0.4,0.3,0.5,0.5c2.1,4.9,4.8,9.3,8.4,13.2
	c7,7.7,15.7,12.6,26,14.3c14.3,2.3,26.9-1.3,37.9-10.8c5.3-4.6,9.2-10.2,11.9-16.7c0.2-0.4,0.4-0.6,0.9-0.6c0.4,0,0.8,0,1.4,0
	c-0.5,1.2-1,2.4-1.6,3.5c-6.8,13.7-17.6,22.4-32.4,25.9c-2.5,0.6-5.1,0.7-7.6,1.1c-0.2,0-0.4,0.1-0.6,0.1c-1.4,0-2.9,0-4.3,0
	c-1.3-0.1-2.5-0.2-3.8-0.4c-8.9-1.1-16.8-4.5-23.8-10.1c-6.4-5.2-11.1-11.6-14.2-19.2c-0.1-0.3-0.2-0.6-0.4-0.9
	C178.5,64.3,179.1,64.3,179.6,64.4z"/>
</svg>
