<?xml version="1.0" encoding="UTF-8"?><!DOCTYPE svg PUBLIC "-//W3C//DTD SVG 1.1//EN" "http://www.w3.org/Graphics/SVG/1.1/DTD/svg11.dtd"><svg xmlns="http://www.w3.org/2000/svg" xmlns:xlink="http://www.w3.org/1999/xlink"><defs>
        <path id="a" d="M0 0h50v42.1H0z"/>
    
            <path id="c" d="M0 0h50v42.1H0z"/>
        
            <path id="e" d="M0 0h50v42.1H0z"/>
        
        <path id="a" d="M0 0h38.2v49H0z"/>
    
            <path id="c" d="M0 0h38.2v49H0z"/>
        </defs><symbol id="icon-bottle" viewBox="0 0 17 47.8">
    <g stroke-linecap="round" stroke-miterlimit="10">
        <path stroke-linejoin="round" d="M4.2.5h8.5V5H4.2z"/>
        <path stroke-linejoin="round" d="M11.8 5c0 5.7 4.3 8 4.3 12.1s-1.7 6.3-1.7 10.6c0 5.7 3.1 15.6 1.7 18.1 0 0-1.7 1.5-7.5 1.5S.8 45.8.8 45.8c-1.3-2.5 1.7-12.4 1.7-18.1 0-4.3-1.7-6.5-1.7-10.6S5.1 9.8 5.1 5"/>
        <path stroke-linejoin="round" d="M13.3 43.8c-1.1.2-2.7.4-4.7.4s-3.5-.2-4.7-.4"/>
        <path d="M15.1 33.7h-13"/>
        <path d="M2.1 21.6h13"/>
        <path d="M6.8 7.6h3.4"/>
    </g>
</symbol><symbol id="icon-check" viewBox="1 1 10 7">
    <path d="M10.7 2.9L6 7.7c-.4.4-1.1.4-1.6 0L1.3 4.5c-.4-.4-.4-1.1 0-1.6s1.1-.4 1.6 0l2.3 2.4 3.9-4c.4-.4 1.1-.4 1.6 0 .4.5.4 1.2 0 1.6z"/>
</symbol><symbol id="icon-chemistry" viewBox="0 0 50 42.1">
    
    <clipPath id="b">
        <use xlink:href="#a" overflow="visible"/>
    </clipPath>
    <path clip-path="url(#b)" stroke-linecap="round" stroke-linejoin="round" stroke-miterlimit="10" d="M24.6 17.7L13.5 28.9c-1.2 1.2-3.1 1.2-4.3 0l-7.8-7.8C.2 19.9.2 18 1.4 16.8L15.1 3"/>
    <path clip-path="url(#b)" stroke-linecap="round" stroke-linejoin="round" stroke-miterlimit="10" d="M15.1 3l14.6 14.7h-5.1"/>
    <path clip-path="url(#b)" stroke-linecap="round" stroke-linejoin="round" stroke-miterlimit="10" d="M6.6 11.3L5.3 9.9c-2.2-2.2-2.2-5.7 0-7.8 2.2-2.2 5.7-2.2 7.8 0l1.3 1.3"/>
    <path clip-path="url(#b)" stroke-linecap="round" stroke-linejoin="round" stroke-miterlimit="10" d="M29.7 27.2c0 1.4-1.1 2.5-2.5 2.5s-2.5-1.1-2.5-2.5 2.6-5.7 2.6-5.7 2.4 4.3 2.4 5.7z"/>
    <path clip-path="url(#b)" stroke-linecap="round" stroke-linejoin="round" stroke-miterlimit="10" d="M.8 20.2h21.1"/>
    <g>
        
        <clipPath id="d">
            <use xlink:href="#c" overflow="visible"/>
        </clipPath>
        <circle clip-path="url(#d)" stroke-linecap="round" stroke-linejoin="round" stroke-miterlimit="10" cx="46.3" cy="14.9" r="2.5"/>
        <circle clip-path="url(#d)" stroke-linecap="round" stroke-linejoin="round" stroke-miterlimit="10" cx="39.3" cy="18.1" r="1.3"/>
        <path clip-path="url(#d)" stroke-linecap="round" stroke-linejoin="round" stroke-miterlimit="10" d="M37.4 33.3V23.2h-1.9"/>
        <path clip-path="url(#d)" stroke-linecap="round" stroke-linejoin="round" stroke-miterlimit="10" d="M45.6 23.2h-1.9v10.1"/>
        <path clip-path="url(#d)" stroke-linecap="round" stroke-linejoin="round" stroke-miterlimit="10" d="M43.7 33.3l5.8 8.3H31.6l5.8-8.3"/>
    </g>
    <g>
        
        <clipPath id="f">
            <use xlink:href="#e" overflow="visible"/>
        </clipPath>
        <path clip-path="url(#f)" stroke-linecap="round" stroke-linejoin="round" stroke-miterlimit="10" d="M35.4 36.4c2.9-1.9 7.3 1.9 10.2 0"/>
    </g>
</symbol><symbol id="icon-close" viewBox="0.9 1 13 13">
    <path d="M13.7 2.7L8.9 7.5l4.7 4.7c.4.4.4 1.1 0 1.5-.4.4-1.1.4-1.5 0L7.5 9l-4.7 4.7c-.4.4-1.1.4-1.5 0-.4-.4-.4-1.1 0-1.5L6 7.5 1.2 2.7c-.4-.4-.4-1.1 0-1.5s1.1-.4 1.5 0L7.5 6l4.8-4.8c.4-.4 1.1-.4 1.5 0s.3 1.1-.1 1.5z"/>
</symbol><symbol id="icon-cup" viewBox="0 0 33 42">
    <g stroke-linecap="round" stroke-linejoin="round" stroke-miterlimit="10">
        <path d="M26.2 19.2v-7.6H6.8v7.6"/>
        <path d="M6.8 19.3c0 5.4 4.4 9.7 9.7 9.7s9.7-4.4 9.7-9.7"/>
        <path d="M20.7 38.1h-8.4"/>
        <path d="M26.9 20.2c3.1 0 5.6-3.4 5.6-6.5h-5.6"/>
        <path d="M6.1 20.2C3 20.2.5 16.8.5 13.7h5.6"/>
        <path d="M16.5 29.1v9"/>
        <path d="M24.2 41.5H8.8"/>
        <path d="M16.5 15.1l1.3 2.8 2.9.4-2.1 2.1.5 3.1-2.6-1.5-2.6 1.5.5-3.1-2.1-2.1 2.9-.4z"/>
        <g>
            <path d="M16.5.5v7.7"/>
            <path d="M20.7 5.4v2.8"/>
            <path d="M12.3 5.4v2.8"/>
        </g>
    </g>
</symbol><symbol id="icon-down" viewBox="-294 392 18 10">
    <path d="M-276.3 393.7l-8 8c-.2.2-.5.3-.8.3-.3 0-.6-.1-.8-.3l-8-8c-.4-.4-.4-1 0-1.4.4-.4 1-.4 1.4 0l7.3 7.3 7.3-7.3c.4-.4 1-.4 1.4 0 .6.4.6 1 .2 1.4z"/>
</symbol><symbol id="icon-facebook" viewBox="0 0 10 19">
    <title>
        facebook
    </title>
    <path d="M9.766.157v2.946H8.014c-.64 0-1.071.134-1.295.402-.223.268-.335.67-.335 1.205v2.11h3.27l-.435 3.303H6.384v8.471H2.97v-8.47H.123V6.82H2.97V4.387c0-1.384.387-2.457 1.161-3.22C4.904.404 5.934.023 7.222.023c1.093 0 1.941.045 2.544.134z" fill-rule="evenodd"/>
</symbol><symbol id="icon-flower" viewBox="0 0 38.2 49">
    
    <clipPath id="b">
        <use xlink:href="#a" overflow="visible"/>
    </clipPath>
    <path clip-path="url(#b)" stroke-linecap="round" stroke-linejoin="round" stroke-miterlimit="10" d="M18.8 33.3h18.9v3.8H18.8z"/>
    <path stroke-linecap="round" stroke-linejoin="round" stroke-miterlimit="10" d="M28.3 27v6.3"/>
    <g>
        
        <clipPath id="d">
            <use xlink:href="#c" overflow="visible"/>
        </clipPath>
        <path clip-path="url(#d)" stroke-linecap="round" stroke-linejoin="round" stroke-miterlimit="10" d="M33.6 48.5H23.4l-1.8-11.4h13.9z"/>
        <path clip-path="url(#d)" stroke-linecap="round" stroke-linejoin="round" stroke-miterlimit="10" d="M35.9 19.5c-8-.5-7.6 7.5-7.6 7.5"/>
        <path clip-path="url(#d)" stroke-linecap="round" stroke-linejoin="round" stroke-miterlimit="10" d="M28.3 27c8 .5 7.6-7.5 7.6-7.5"/>
        <path clip-path="url(#d)" stroke-linecap="round" stroke-linejoin="round" stroke-miterlimit="10" d="M20.7 20.7c8-.5 7.6 7.5 7.6 7.5"/>
        <path clip-path="url(#d)" stroke-linecap="round" stroke-linejoin="round" stroke-miterlimit="10" d="M28.3 28.3c-8 .5-7.6-7.5-7.6-7.5"/>
        <circle clip-path="url(#d)" stroke-linecap="round" stroke-linejoin="round" stroke-miterlimit="10" cx="15" cy="14.7" r="5.1"/>
        <path clip-path="url(#d)" stroke-linecap="round" stroke-linejoin="round" stroke-miterlimit="10" d="M15 6.8V.5"/>
        <path clip-path="url(#d)" stroke-linecap="round" stroke-linejoin="round" stroke-miterlimit="10" d="M15 29.5v-6.3"/>
        <path clip-path="url(#d)" stroke-linecap="round" stroke-linejoin="round" stroke-miterlimit="10" d="M23.2 15h6.3"/>
        <path clip-path="url(#d)" stroke-linecap="round" stroke-linejoin="round" stroke-miterlimit="10" d="M.5 15h6.3"/>
        <path clip-path="url(#d)" stroke-linecap="round" stroke-linejoin="round" stroke-miterlimit="10" d="M4.3 4l3.8 3.8"/>
        <path clip-path="url(#d)" stroke-linecap="round" stroke-linejoin="round" stroke-miterlimit="10" d="M8.1 21.6l-3.8 3.8"/>
        <path clip-path="url(#d)" stroke-linecap="round" stroke-linejoin="round" stroke-miterlimit="10" d="M25.8 4L22 7.8"/>
    </g>
</symbol><symbol id="icon-hill" viewBox="-183 377 245 40">
    <path d="M-183 417h21.7s11.6 0 23.2-5.1c19-8.4 31.1-22.1 50.4-29.3 16.9-6.3 27.2-5.6 27.2-5.6s10.7-.6 27.2 5.6c19.4 7.2 31.4 21 50.4 29.3 11.6 5.1 23.2 5.1 23.2 5.1H62h-245z"/>
</symbol><symbol id="icon-letter" viewBox="0 0 31 31">
    <g stroke-linecap="round" stroke-linejoin="round" stroke-miterlimit="10">
        <path d="M30.5 13.5v15c0 1.1-.9 2-2 2h-26c-1.1 0-2-.9-2-2v-15"/>
        <path d="M1.5 29.5l13.2-11.7c.4-.4 1.1-.4 1.5 0l13.2 11.7"/>
        <path d="M25.6 9.3l4.9 4.2"/>
        <path d="M11 4.4L15.5.5l4.6 4"/>
        <path d="M.5 13.5l4.8-4.1"/>
    </g>
    <path stroke-linecap="round" stroke-linejoin="round" stroke-miterlimit="10" d="M.5 13.5l9.6 8.4"/>
    <path stroke-linecap="round" stroke-linejoin="round" stroke-miterlimit="10" d="M30.5 13.5l-9.6 8.4"/>
    <g>
        <path stroke-linecap="round" stroke-linejoin="round" stroke-miterlimit="10" d="M25.5 17.5v-13h-20v13"/>
    </g>
</symbol><symbol id="icon-map-marker" viewBox="0 0 31 31">
    <g stroke-linecap="round" stroke-linejoin="round" stroke-miterlimit="10">
        <path d="M10.5 30.5l-10-4v-24l4 1"/>
        <path d="M26.5 5.5l4 1v24l-10-4"/>
        <path d="M10.5 30.5l10-4"/>
        <path d="M10.5 22.5v8"/>
        <path d="M20.5 22.5v4"/>
    </g>
    <circle stroke-linecap="round" stroke-linejoin="round" stroke-miterlimit="10" cx="15.5" cy="8.6" r="3"/>
    <path stroke-linecap="round" stroke-linejoin="round" stroke-miterlimit="10" d="M7.5 8.5c0 7.1 8 14 8 14s8-6.9 8-14c0-4.4-3.6-8-8-8s-8 3.6-8 8z"/>
</symbol><symbol id="icon-marker" viewBox="-289 -40 29 40">
    <path d="M-273-.5c-.2.3-.6.5-1 .5s-.7-.2-1-.4l-.5-.6c-5.7-6.6-13.5-15.7-13.5-24.1 0-8.1 6.7-14.9 14.7-14.9 4.5 0 8.3 1.6 10.9 4.7 2.2 2.7 3.4 6.3 3.4 10.1 0 6.4-4.4 14.7-13 24.7zm-1.2-30.5c-3.5 0-6.3 2.8-6.3 6.1 0 3.4 2.8 6.1 6.3 6.1s6.3-2.8 6.3-6.1-2.8-6.1-6.3-6.1z"/>
</symbol><symbol id="icon-next" viewBox="-298 388 10 18">
    <path d="M-288.3 397.7l-8 7.9c-.4.4-1 .4-1.4 0-.4-.4-.4-1 0-1.4l7.3-7.3-7.3-7.3c-.4-.4-.4-1 0-1.4.4-.4 1-.4 1.4 0l8 7.9c.2.2.3.5.3.8 0 .4-.1.6-.3.8z"/>
</symbol><symbol id="icon-phone" viewBox="0 0 29 31">
    <g stroke-linecap="round" stroke-linejoin="round" stroke-miterlimit="10">
        <path d="M16.5 28.5c0 1.1-.9 2-2 2h-12c-1.1 0-2-.9-2-2v-26c0-1.1.9-2 2-2h12c1.1 0 2 .9 2 2v26z"/>
        <path d="M6.5 3.5h4"/>
        <circle cx="8.5" cy="26.5" r="1"/>
    </g>
    <path stroke-linecap="round" stroke-linejoin="round" stroke-miterlimit="10" d="M21.5 21.5c2.7-3.3 2.7-8.7 0-12"/>
    <path stroke-linecap="round" stroke-linejoin="round" stroke-miterlimit="10" d="M26.5 23.5c2.7-4.4 2.7-11.6 0-16"/>
</symbol><symbol id="icon-prev" viewBox="-298 388 10 18">
    <path d="M-297.7 396.2l8-7.9c.4-.4 1-.4 1.4 0 .4.4.4 1 0 1.4l-7.3 7.3 7.3 7.3c.4.4.4 1 0 1.4-.4.4-1 .4-1.4 0l-8-7.9c-.2-.2-.3-.5-.3-.8 0-.3.1-.6.3-.8z"/>
</symbol></svg>